<mxfile host="Electron" modified="2025-04-07T17:46:29.686Z" agent="Mozilla/5.0 (Windows NT 10.0; Win64; x64) AppleWebKit/537.36 (KHTML, like Gecko) draw.io/21.5.1 Chrome/112.0.5615.204 Electron/24.6.0 Safari/537.36" etag="6QzevH0LjWHZ4eWyx4zp" version="21.5.1" type="device">
  <diagram name="Page-1" id="wlyHqTBTOK9gExI4CSCd">
    <mxGraphModel dx="733" dy="621" grid="1" gridSize="10" guides="1" tooltips="1" connect="1" arrows="1" fold="1" page="1" pageScale="1" pageWidth="827" pageHeight="1169" math="0" shadow="0">
      <root>
        <mxCell id="0" />
        <mxCell id="1" parent="0" />
        <mxCell id="DGkaBWHLMAZsAhHA3yGZ-3" style="edgeStyle=orthogonalEdgeStyle;rounded=1;orthogonalLoop=1;jettySize=auto;html=1;endArrow=none;endFill=0;startArrow=diamondThin;startFill=1;startSize=14;" parent="1" source="DGkaBWHLMAZsAhHA3yGZ-1" target="DGkaBWHLMAZsAhHA3yGZ-2" edge="1">
          <mxGeometry relative="1" as="geometry">
            <Array as="points">
              <mxPoint x="230" y="330" />
              <mxPoint x="344" y="330" />
            </Array>
          </mxGeometry>
        </mxCell>
        <mxCell id="DGkaBWHLMAZsAhHA3yGZ-1" value="&lt;p style=&quot;margin:0px;margin-top:4px;text-align:center;&quot;&gt;&lt;b&gt;Auto&lt;br&gt;&lt;/b&gt;&lt;/p&gt;&lt;hr&gt;&amp;nbsp;&amp;nbsp;- voorwiel, achterwiel : Wiel&lt;br&gt;&amp;nbsp; - chassis : Chassis&lt;br&gt;&amp;nbsp; - x, y: int&lt;br&gt;&lt;hr&gt;&amp;nbsp; + setPos(x, y:int)&lt;br&gt;&amp;nbsp; + draw()" style="verticalAlign=top;align=left;overflow=fill;fontSize=12;fontFamily=Helvetica;html=1;whiteSpace=wrap;" parent="1" vertex="1">
          <mxGeometry x="140" y="170" width="190" height="120" as="geometry" />
        </mxCell>
        <mxCell id="DGkaBWHLMAZsAhHA3yGZ-8" style="edgeStyle=orthogonalEdgeStyle;rounded=1;orthogonalLoop=1;jettySize=auto;html=1;" parent="1" source="DGkaBWHLMAZsAhHA3yGZ-2" target="DGkaBWHLMAZsAhHA3yGZ-6" edge="1">
          <mxGeometry relative="1" as="geometry">
            <Array as="points">
              <mxPoint x="240" y="550" />
              <mxPoint x="240" y="550" />
            </Array>
          </mxGeometry>
        </mxCell>
        <mxCell id="DGkaBWHLMAZsAhHA3yGZ-2" value="&lt;p style=&quot;margin:0px;margin-top:4px;text-align:center;&quot;&gt;&lt;b&gt;Chassis&lt;br&gt;&lt;/b&gt;&lt;/p&gt;&lt;hr&gt;&amp;nbsp;- x,y,width,height:int&amp;nbsp;&amp;nbsp;&amp;nbsp;&lt;br&gt;&amp;nbsp;- renderWindow:RenderWindow&amp;amp;&lt;br&gt;&amp;nbsp;- rectangle:RectangleShape&lt;br&gt;&lt;hr&gt;&amp;nbsp;+ Chassis (x,y,with,height:int,&lt;br style=&quot;border-color: var(--border-color);&quot;&gt;&amp;nbsp; &amp;nbsp; &amp;nbsp; &amp;nbsp; &amp;nbsp; &amp;nbsp; &amp;nbsp; &amp;nbsp;rw:RenderWindow&amp;amp;)&amp;nbsp; &lt;br&gt;&amp;nbsp; + setPos(x,y:int)&lt;br&gt;&amp;nbsp; + draw()" style="verticalAlign=top;align=left;overflow=fill;fontSize=12;fontFamily=Helvetica;html=1;whiteSpace=wrap;" parent="1" vertex="1">
          <mxGeometry x="210" y="360" width="200" height="160" as="geometry" />
        </mxCell>
        <mxCell id="DGkaBWHLMAZsAhHA3yGZ-7" style="edgeStyle=orthogonalEdgeStyle;rounded=1;orthogonalLoop=1;jettySize=auto;html=1;" parent="1" source="DGkaBWHLMAZsAhHA3yGZ-4" target="DGkaBWHLMAZsAhHA3yGZ-6" edge="1">
          <mxGeometry relative="1" as="geometry">
            <Array as="points">
              <mxPoint x="160" y="550" />
              <mxPoint x="240" y="550" />
            </Array>
          </mxGeometry>
        </mxCell>
        <mxCell id="DGkaBWHLMAZsAhHA3yGZ-4" value="&lt;p style=&quot;margin:0px;margin-top:4px;text-align:center;&quot;&gt;&lt;b&gt;Wiel&lt;/b&gt;&lt;/p&gt;&lt;hr&gt;&amp;nbsp; - x,y,radius:int&lt;br&gt;&amp;nbsp; - rw:RenderWindow&amp;amp;&lt;br&gt;&amp;nbsp; - circle:CircleShape&lt;br&gt;&lt;hr&gt;&amp;nbsp; + Wiel (x,y,radius:int,&lt;br&gt;&amp;nbsp; &amp;nbsp; &amp;nbsp; &amp;nbsp; &amp;nbsp; &amp;nbsp; &amp;nbsp; rw:RenderWindow&amp;amp;)&lt;br&gt;&amp;nbsp; + setPos(x,y:int)&lt;br&gt;&amp;nbsp; + draw()" style="verticalAlign=top;align=left;overflow=fill;fontSize=12;fontFamily=Helvetica;html=1;whiteSpace=wrap;" parent="1" vertex="1">
          <mxGeometry y="360" width="190" height="160" as="geometry" />
        </mxCell>
        <mxCell id="DGkaBWHLMAZsAhHA3yGZ-5" value="2" style="edgeStyle=orthogonalEdgeStyle;rounded=1;orthogonalLoop=1;jettySize=auto;html=1;endArrow=none;endFill=0;startArrow=diamondThin;startFill=1;startSize=14;" parent="1" source="DGkaBWHLMAZsAhHA3yGZ-1" target="DGkaBWHLMAZsAhHA3yGZ-4" edge="1">
          <mxGeometry x="0.8" y="-10" relative="1" as="geometry">
            <mxPoint x="240" y="300" as="sourcePoint" />
            <mxPoint x="240" y="370" as="targetPoint" />
            <Array as="points">
              <mxPoint x="230" y="330" />
              <mxPoint x="100" y="330" />
            </Array>
            <mxPoint as="offset" />
          </mxGeometry>
        </mxCell>
        <mxCell id="DGkaBWHLMAZsAhHA3yGZ-6" value="&lt;p style=&quot;margin:0px;margin-top:4px;text-align:center;&quot;&gt;&lt;b&gt;RenderWindow&lt;/b&gt;&lt;/p&gt;&lt;hr&gt;&amp;nbsp; ..." style="verticalAlign=top;align=left;overflow=fill;fontSize=12;fontFamily=Helvetica;html=1;whiteSpace=wrap;" parent="1" vertex="1">
          <mxGeometry x="170" y="580" width="140" height="60" as="geometry" />
        </mxCell>
        <mxCell id="n2jmeSeKAB5sJD_JPidr-1" value="&lt;p style=&quot;margin:0px;margin-top:4px;text-align:center;&quot;&gt;&lt;b&gt;CircleShape&lt;/b&gt;&lt;/p&gt;&lt;hr&gt;&amp;nbsp; ..." style="verticalAlign=top;align=left;overflow=fill;fontSize=12;fontFamily=Helvetica;html=1;whiteSpace=wrap;" vertex="1" parent="1">
          <mxGeometry x="10" y="580" width="140" height="60" as="geometry" />
        </mxCell>
        <mxCell id="n2jmeSeKAB5sJD_JPidr-2" value="&lt;p style=&quot;margin:0px;margin-top:4px;text-align:center;&quot;&gt;&lt;b&gt;RectangleShape&lt;/b&gt;&lt;/p&gt;&lt;hr&gt;&amp;nbsp; ..." style="verticalAlign=top;align=left;overflow=fill;fontSize=12;fontFamily=Helvetica;html=1;whiteSpace=wrap;" vertex="1" parent="1">
          <mxGeometry x="330" y="580" width="140" height="60" as="geometry" />
        </mxCell>
        <mxCell id="n2jmeSeKAB5sJD_JPidr-3" style="edgeStyle=orthogonalEdgeStyle;rounded=1;orthogonalLoop=1;jettySize=auto;html=1;endArrow=none;endFill=0;startArrow=diamondThin;startFill=1;startSize=14;" edge="1" parent="1" source="DGkaBWHLMAZsAhHA3yGZ-4" target="n2jmeSeKAB5sJD_JPidr-1">
          <mxGeometry relative="1" as="geometry">
            <mxPoint x="240" y="300" as="sourcePoint" />
            <mxPoint x="110" y="370" as="targetPoint" />
            <Array as="points">
              <mxPoint x="80" y="510" />
              <mxPoint x="80" y="510" />
            </Array>
          </mxGeometry>
        </mxCell>
        <mxCell id="n2jmeSeKAB5sJD_JPidr-4" style="edgeStyle=orthogonalEdgeStyle;rounded=1;orthogonalLoop=1;jettySize=auto;html=1;endArrow=none;endFill=0;startArrow=diamondThin;startFill=1;startSize=14;" edge="1" parent="1" source="DGkaBWHLMAZsAhHA3yGZ-2" target="n2jmeSeKAB5sJD_JPidr-2">
          <mxGeometry relative="1" as="geometry">
            <mxPoint x="90" y="500" as="sourcePoint" />
            <mxPoint x="90" y="590" as="targetPoint" />
            <Array as="points">
              <mxPoint x="370" y="550" />
              <mxPoint x="370" y="550" />
            </Array>
          </mxGeometry>
        </mxCell>
      </root>
    </mxGraphModel>
  </diagram>
</mxfile>
